<svg width="19" height="18" viewBox="0 0 19 18" fill="none" xmlns="http://www.w3.org/2000/svg">
<path fill-rule="evenodd" clip-rule="evenodd" d="M8.58333 1.5C4.94746 1.5 2 4.44746 2 8.08333C2 11.7192 4.94746 14.6667 8.58333 14.6667C12.2192 14.6667 15.1667 11.7192 15.1667 8.08333C15.1667 4.44746 12.2192 1.5 8.58333 1.5ZM0.5 8.08333C0.5 3.61903 4.11903 0 8.58333 0C13.0476 0 16.6667 3.61903 16.6667 8.08333C16.6667 12.5476 13.0476 16.1667 8.58333 16.1667C4.11903 16.1667 0.5 12.5476 0.5 8.08333Z" fill="#272343"/>
<path fill-rule="evenodd" clip-rule="evenodd" d="M13.2322 12.7321C13.5251 12.4392 13.9999 12.4392 14.2928 12.7321L18.2803 16.7196C18.5732 17.0125 18.5732 17.4874 18.2803 17.7803C17.9874 18.0732 17.5126 18.0732 17.2197 17.7803L13.2322 13.7928C12.9393 13.4999 12.9393 13.025 13.2322 12.7321Z" fill="#272343"/>
</svg>
